[img]http://img444.imageshack.us/img444/3917/saintsandsoldiersnlblur.jpg[/img]
 
http://www.imdb.com/title/tt0373283/

Source: Saints.and.Soldiers.2003.German.DL.1080p.BluRay.x264-DETAiLS

Audio: English-German

Subs: Arabic, Brazilian, Croatian, Dutch, English, Greek, Indonesian, Persian, Polish, Romanian, Slovenian, Swedish and Vietnamese.

Sample and Screens included.

General
Complete name                    : Saints and Soldiers-720p MP4 AAC BRRip 2003-CC.mp4
Format                           : MPEG-4
Format profile                   : Base Media
Codec ID                         : isom
File size                        : 1.84 GiB
Duration                         : 1h 30mn
Overall bit rate                 : 2 910 Kbps
Encoded date                     : UTC 2012-02-25 10:31:24
Tagged date                      : UTC 2012-02-25 10:31:24
Writing application              : Yamb 2.1.0.0 

Video
ID                               : 1
Format                           : AVC
Format/Info                      : Advanced Video Codec
Format profile                   : High@L3.1
Format settings, CABAC           : Yes
Format settings, ReFrames        : 5 frames
Codec ID                         : avc1
Codec ID/Info                    : Advanced Video Coding
Duration                         : 1h 30mn
Bit rate mode                    : Variable
Bit rate                         : 2 578 Kbps
Maximum bit rate                 : 54.6 Mbps
Width                            : 1 280 pixels
Height                           : 688 pixels
Display aspect ratio             : 1.860
Frame rate mode                  : Variable
Frame rate                       : 23.976 fps
Minimum frame rate               : 19.048 fps
Maximum frame rate               : 24.390 fps
Color space                      : YUV
Chroma subsampling               : 4:2:0
Bit depth                        : 8 bits
Scan type                        : Progressive
Bits/(Pixel*Frame)               : 0.122
Stream size                      : 1.59 GiB (87%)
Writing library                  : x264 core 112
Encoding settings                : cabac=1 / ref=5 / deblock=1:0:0 / analyse=0x3:0x113 / me=hex / subme=7 / psy=1 / psy_rd=1.00:0.00 / mixed_ref=1 / me_range=16 / chroma_me=1 / trellis=1 / 8x8dct=1 / cqm=0 / deadzone=21,11 / fast_pskip=1 / chroma_qp_offset=-2 / threads=3 / sliced_threads=0 / nr=0 / decimate=1 / interlaced=0 / constrained_intra=0 / bframes=5 / b_pyramid=2 / b_adapt=2 / b_bias=0 / direct=1 / weightb=1 / open_gop=0 / weightp=2 / keyint=240 / keyint_min=24 / scenecut=40 / intra_refresh=0 / rc_lookahead=50 / rc=abr / mbtree=1 / bitrate=2578 / ratetol=1.0 / qcomp=0.60 / qpmin=3 / qpmax=51 / qpstep=4 / ip_ratio=1.40 / aq=1:1.00
Encoded date                     : UTC 2012-02-25 23:19:39
Tagged date                      : UTC 2012-02-25 10:34:34
Color primaries                  : BT.709-5, BT.1361, IEC 61966-2-4, SMPTE RP177
Transfer characteristics         : BT.709-5, BT.1361
Matrix coefficients              : BT.709-5, BT.1361, IEC 61966-2-4 709, SMPTE RP177

Audio
ID                               : 2
Format                           : AAC
Format/Info                      : Advanced Audio Codec
Format version                   : Version 4
Format profile                   : LC
Format settings, SBR             : No
Codec ID                         : 40
Duration                         : 1h 30mn
Bit rate mode                    : Variable
Bit rate                         : 384 Kbps
Maximum bit rate                 : 703 Kbps
Channel(s)                       : 6 channels
Channel positions                : Front: L C R, Side: L R, LFE
Sampling rate                    : 48.0 KHz
Stream size                      : 248 MiB (13%)
Language                         : English
Encoded date                     : UTC 2012-02-25 10:33:38
Tagged date                      : UTC 2012-02-25 10:34:34

Enjoy...

[img]http://img21.imageshack.us/img21/295/saintsandsoldiers720pmp.png[/img]

[img]http://img268.imageshack.us/img268/295/saintsandsoldiers720pmp.png[/img]

[img]http://img513.imageshack.us/img513/295/saintsandsoldiers720pmp.png[/img]

[img]http://img515.imageshack.us/img515/295/saintsandsoldiers720pmp.png[/img]

[img]http://img337.imageshack.us/img337/295/saintsandsoldiers720pmp.png[/img]

[img]http://img207.imageshack.us/img207/295/saintsandsoldiers720pmp.png[/img]

[img]http://img684.imageshack.us/img684/295/saintsandsoldiers720pmp.png[/img]

[img]http://img811.imageshack.us/img811/295/saintsandsoldiers720pmp.png[/img]